<svg width="34" height="37" viewBox="0 0 34 37" fill="none" xmlns="http://www.w3.org/2000/svg">
<g clip-path="url(#clip0_6_103)">
<path d="M17.8479 9.04468C23.7496 9.4319 28.2759 12.4617 31.0981 17.8531C32.349 20.2421 32.8439 22.811 32.7863 25.4768C32.7517 26.8811 32.1655 28.2221 31.1433 29.2354C30.121 30.2486 28.737 30.8606 27.2641 30.9505C24.3599 31.1362 21.6819 29.0412 21.2477 26.2086C21.1293 25.4385 21.184 24.646 21.0883 23.8708C20.7908 21.4616 18.112 19.8029 15.7847 20.6098C14.1482 21.1777 13.3132 22.4224 12.9807 23.9886C12.6635 25.4789 13.0407 26.8862 13.7178 28.2212C14.9756 30.702 16.8793 32.6417 19.3151 34.1132C19.829 34.4239 20.3733 34.6522 21.0041 34.7006C21.6348 34.749 22.0888 35.3262 22.0417 35.9215C22.0217 36.2137 21.8845 36.4874 21.6585 36.6861C21.4324 36.8848 21.1349 36.9933 20.8272 36.9892C19.9694 36.9769 19.1998 36.6619 18.4665 36.2754C15.9669 34.9585 14.0093 33.0903 12.4608 30.8248C11.4429 29.3359 10.7278 27.7264 10.5016 25.9485C10.1138 22.9028 11.6501 19.8975 14.3622 18.6644C17.983 17.0173 22.4129 19.0913 23.3541 22.9151C23.5583 23.7473 23.5249 24.633 23.5963 25.4941C23.6957 26.7099 24.2726 27.657 25.3945 28.253C27.3847 29.3106 29.9329 28.1439 30.2525 25.9543C30.3982 24.9581 30.3284 23.9062 30.1766 22.9035C29.6847 19.61 28.1666 16.7977 25.5706 14.5466C20.538 10.1832 12.7917 10.3277 7.92917 14.8652C2.76526 19.688 2.18837 27.2568 6.57348 32.7551C6.82625 33.0722 7.03348 33.3988 6.95302 33.8127C6.85737 34.2881 6.57348 34.6262 6.06871 34.7519C5.53736 34.8848 5.09938 34.7194 4.76084 34.3105C3.58505 32.8888 2.64988 31.3334 2.095 29.6032C0.131305 23.4836 1.38452 18.0193 6.05732 13.4037C9.10876 10.3884 12.964 9.01434 17.8479 9.04468Z" fill="#0B0B0B"/>
<path d="M5.78613 24.4501C5.86204 19.7862 8.89829 15.6511 13.354 14.1709C18.4192 12.4877 23.9619 14.4902 26.6376 18.9706C27.6328 20.6154 28.1642 22.4771 28.18 24.375C28.1884 25.1357 27.739 25.6479 27.0293 25.6754C26.3196 25.7028 25.7677 25.2058 25.7548 24.4422C25.7192 22.4238 25.0891 20.5975 23.7463 19.0364C21.6597 16.6155 18.9498 15.5102 15.6866 16.0015C12.387 16.4978 10.1378 18.3732 8.88615 21.2961C7.79993 23.8332 8.15365 26.3133 9.37499 28.7305C10.5303 31.0184 12.1008 33.0274 13.8907 34.8927C14.0906 35.0896 14.2409 35.3273 14.3302 35.5876C14.3975 35.8288 14.3767 36.0845 14.2711 36.3129C14.1656 36.5413 13.9817 36.7288 13.7495 36.8446C13.2637 37.0982 12.6822 37.0433 12.2906 36.6279C11.571 35.8744 10.8544 35.1094 10.194 34.3046C8.59467 32.349 7.23367 30.2591 6.42754 27.8802C6.22192 27.2618 6.05913 26.6312 5.94022 25.9925C5.84458 25.4861 5.83395 24.9645 5.78613 24.4501Z" fill="#0B0B0B"/>
<path d="M16.6719 4.48486C24.0849 4.72543 29.6519 7.59125 33.7265 13.0896C34.1752 13.6942 34.0567 14.3964 33.4745 14.7764C32.8923 15.1564 32.1674 15.0061 31.7287 14.3964C29.4659 11.2792 26.4965 9.03031 22.7323 7.7733C15.8643 5.49047 8.18784 7.5219 3.52415 12.8396C3.08693 13.3381 2.68462 13.8647 2.2808 14.3877C1.82157 14.9859 1.10805 15.1542 0.531157 14.7844C-0.0662269 14.4 -0.176291 13.6949 0.280665 13.0701C3.46873 8.71461 7.76352 5.9362 13.2402 4.88219C14.4744 4.64524 15.7451 4.58817 16.6719 4.48486Z" fill="#0B0B0B"/>
<path d="M17.6158 0C22.5034 0.0722416 27.3189 1.84433 31.4421 5.32421C31.8095 5.63413 32.0183 6.00039 31.9234 6.47141C31.7374 7.38743 30.6793 7.71035 29.8914 7.11219C29.1035 6.51403 28.3315 5.88408 27.492 5.35022C24.0709 3.1873 20.2884 2.16725 16.1865 2.33991C11.8089 2.52846 7.94757 4.01664 4.59706 6.70402C4.43234 6.83623 4.2737 6.97421 4.10898 7.10569C3.55259 7.5507 2.82768 7.5283 2.37148 7.0544C1.90086 6.56532 1.94109 5.85952 2.49293 5.38128C4.19481 3.90141 6.13508 2.69092 8.23981 1.79593C11.0248 0.610442 13.9419 0.0108362 17.6158 0Z" fill="#0B0B0B"/>
<path d="M25.112 34.7303C23.4064 34.6457 21.8624 33.9602 20.5045 32.9062C17.5441 30.6082 15.8522 27.6686 15.7004 23.9908C15.667 23.1615 16.1497 22.6247 16.8921 22.6182C17.6345 22.6117 18.0876 23.1391 18.1316 23.9706C18.3017 27.1492 19.7925 29.6416 22.4955 31.4837C23.3186 32.0549 24.3001 32.3828 25.3177 32.4265C26.0616 32.4583 26.5831 32.9712 26.5565 33.617C26.5292 34.2816 25.9485 34.7577 25.112 34.7303Z" fill="#0B0B0B"/>
</g>
<defs>
<clipPath id="clip0_6_103">
<rect width="34" height="37" fill="white"/>
</clipPath>
</defs>
</svg>
