<svg width="36.000000" height="36.000000" viewBox="0 0 36 36" fill="none" xmlns="http://www.w3.org/2000/svg" xmlns:xlink="http://www.w3.org/1999/xlink">
	<desc>
			Created with Pixso.
	</desc>
	<defs>
		<clipPath id="clip2357_4336">
			<rect width="36.000000" height="36.000000" fill="white" fill-opacity="0"/>
		</clipPath>
	</defs>
	<rect width="36.000000" height="36.000000" fill="#FFFFFF" fill-opacity="0"/>
	<g clip-path="url(#clip2357_4336)">
		<path d="M16.5 3C23.957 3 30 9.04416 30 16.5C30 19.6872 28.8945 22.6164 27.0469 24.9258L32.5625 30.4393C33.1445 31.0251 33.1445 31.9749 32.5625 32.5607C32.0195 33.1014 31.168 33.143 30.582 32.6854L30.4375 32.5607L24.9258 27.0485C22.6172 28.8955 19.6875 30 16.5 30C9.04297 30 3 23.9558 3 16.5C3 9.04416 9.04297 3 16.5 3ZM16.5 6C10.6992 6 6 10.701 6 16.5C6 22.299 10.6992 27 16.5 27C22.3008 27 27 22.299 27 16.5C27 10.701 22.3008 6 16.5 6Z" fill="#0500FF" fill-opacity="1.000000" fill-rule="evenodd"/>
		<path d="M16.5 9C17.1914 9 17.75 9.55964 17.75 10.25L17.75 15.25L22.75 15.25C23.4414 15.25 24 15.8096 24 16.5C24 17.1904 23.4414 17.75 22.75 17.75L17.75 17.75L17.75 22.75C17.75 23.4404 17.1914 24 16.5 24C15.8086 24 15.25 23.4404 15.25 22.75L15.25 17.75L10.25 17.75C9.55859 17.75 9 17.1904 9 16.5C9 15.8096 9.55859 15.25 10.25 15.25L15.25 15.25L15.25 10.25C15.25 9.55964 15.8086 9 16.5 9Z" fill="#0500FF" fill-opacity="1.000000" fill-rule="evenodd"/>
	</g>
</svg>
