<?xml version="1.0" encoding="UTF-8"?>
<svg xmlns="http://www.w3.org/2000/svg" xmlns:xlink="http://www.w3.org/1999/xlink" width="28px" height="28px" viewBox="0 0 28 28" version="1.1">
<g id="surface1">
<path style=" stroke:none;fill-rule:nonzero;fill:rgb(92.941176%,19.607843%,21.568627%);fill-opacity:1;" d="M 1.207031 21.125 L 1.207031 6.523438 C 1.207031 6.410156 1.21875 6.269531 1.265625 6.101562 L 11.6875 16.542969 C 12.269531 17.125 12.988281 17.425781 13.832031 17.425781 C 14.667969 17.425781 15.378906 17.132812 15.960938 16.542969 L 26.402344 6.101562 C 26.421875 6.25 26.441406 6.390625 26.441406 6.523438 L 26.441406 21.125 C 26.441406 21.671875 26.246094 22.140625 25.859375 22.53125 C 25.476562 22.917969 25.007812 23.121094 24.464844 23.121094 L 3.214844 23.121094 C 2.671875 23.121094 2.203125 22.925781 1.808594 22.53125 C 1.40625 22.140625 1.207031 21.671875 1.207031 21.125 Z M 2.640625 4.609375 C 2.828125 4.554688 3.027344 4.527344 3.214844 4.527344 L 24.464844 4.527344 C 24.640625 4.527344 24.828125 4.554688 25.015625 4.609375 L 14.519531 15.109375 C 14.332031 15.296875 14.105469 15.390625 13.832031 15.390625 C 13.5625 15.390625 13.328125 15.296875 13.148438 15.109375 Z M 2.640625 4.609375 "/>
</g>
</svg>
