<svg width="167" height="25" viewBox="0 0 167 25" fill="none" xmlns="http://www.w3.org/2000/svg">
<path d="M5.80025 21.3626C4.70784 21.4072 3.62306 21.1614 2.6556 20.65C1.80707 20.1515 1.13581 19.3981 0.736557 18.4959C0.277649 17.3974 0.0313625 16.2211 0.01087 15.03L3.23615 14.3822C3.2604 15.1019 3.35219 15.8177 3.5103 16.5201C3.64528 17.0494 3.90527 17.5382 4.26824 17.9453C4.63324 18.278 5.11425 18.4526 5.60673 18.4311C5.85389 18.4578 6.10377 18.4229 6.33437 18.3297C6.56497 18.2365 6.76921 18.0878 6.9291 17.8967C7.20005 17.4785 7.33526 16.9862 7.31613 16.4877C7.34902 15.6944 7.12866 14.9113 6.6872 14.2527C6.22833 13.6011 5.68614 13.013 5.07456 12.5035L2.42983 10.1875C1.72692 9.58881 1.12752 8.87739 0.655926 8.0821C0.196669 7.18739 -0.02548 6.189 0.01087 5.18307C-0.0360719 4.48096 0.0694001 3.777 0.319995 3.11985C0.570589 2.46271 0.960326 1.86808 1.46225 1.37708C2.55909 0.43867 3.97488 -0.0372227 5.41321 0.0490346C6.25338 0.0196671 7.08983 0.174414 7.86443 0.502515C8.50009 0.763784 9.05622 1.18825 9.47707 1.73339C9.88454 2.27987 10.1805 2.90181 10.3479 3.5635C10.5498 4.26015 10.6742 4.97714 10.7188 5.70133L7.49352 6.26818C7.46852 5.6797 7.39298 5.09448 7.26775 4.51904C7.18927 4.06496 6.98211 3.64323 6.67108 3.30437C6.29667 2.98576 5.81419 2.82473 5.32437 2.85491C4.83456 2.88509 4.37529 3.10414 4.04247 3.46633C3.74138 3.85365 3.58706 4.33579 3.60706 4.82676C3.58444 5.43944 3.73543 6.04599 4.04247 6.5759C4.40287 7.09557 4.83139 7.56407 5.31646 7.96873L7.91281 10.2523C8.79618 10.9604 9.55874 11.8082 10.1705 12.7627C10.8091 13.8142 11.1286 15.0299 11.0897 16.2609C11.1029 17.1838 10.8749 18.094 10.4285 18.9008C9.98381 19.6715 9.33668 20.3046 8.55787 20.7309C7.70621 21.1711 6.75773 21.3884 5.80025 21.3626Z" fill="#0B0B0B"/>
<path d="M13.1533 21.0876V0.227539H16.943V8.94082H21.2004V0.227539H25.0224V21.0876H21.2004V11.6779H16.943V21.0876H13.1533Z" fill="#0B0B0B"/>
<path d="M33.9575 21.3629C32.6979 21.4358 31.444 21.1435 30.3452 20.5207C29.4757 19.9366 28.8458 19.0566 28.5713 18.0428C28.2119 16.8239 28.0433 15.5563 28.0714 14.2854V0.227539H31.7966V14.8037C31.7971 15.4213 31.8402 16.0382 31.9256 16.65C31.9864 17.1624 32.1936 17.6461 32.5223 18.0428C32.713 18.2239 32.9389 18.3635 33.1859 18.4527C33.4329 18.5418 33.6956 18.5788 33.9575 18.5611C34.2224 18.5863 34.4897 18.553 34.7404 18.4635C34.9912 18.374 35.2193 18.2304 35.4089 18.0428C35.7375 17.6461 35.9448 17.1624 36.0056 16.65C36.1101 16.0401 36.164 15.4225 36.1668 14.8037V0.227539H39.8598V14.3016C39.8782 15.5666 39.7098 16.8274 39.3599 18.0428C39.0854 19.0566 38.4554 19.9366 37.586 20.5207C36.4852 21.1536 35.2231 21.4465 33.9575 21.3629Z" fill="#0B0B0B"/>
<path d="M42.8594 21.0876V0.227539H46.6813V18.4639H51.745V21.0876H42.8594Z" fill="#0B0B0B"/>
<path d="M53.7119 21.0876V0.227539H62.4202V2.89983H57.4532V8.89223H61.3558V11.5645H57.4532V18.4477H62.4686V21.0714L53.7119 21.0876Z" fill="#0B0B0B"/>
<path d="M64.6772 21.0873V0.227268H70.8214C71.8815 0.176849 72.9353 0.417619 73.8693 0.923683C74.6607 1.38181 75.2745 2.09529 75.611 2.94814C76.0177 3.97772 76.2098 5.08016 76.1754 6.18728C76.2083 7.30741 75.9704 8.41887 75.4819 9.42642C75.0406 10.2265 74.3492 10.8583 73.5145 11.2241C72.5821 11.6215 71.576 11.8148 70.5634 11.791H68.4992V21.0387L64.6772 21.0873ZM68.4992 9.16729H69.9506C70.5035 9.19842 71.0559 9.09856 71.5632 8.87576C71.7525 8.78007 71.9211 8.64785 72.0595 8.48668C72.1978 8.3255 72.3032 8.13851 72.3695 7.93641C72.5352 7.35769 72.6113 6.75684 72.5953 6.15489C72.6074 5.54535 72.5478 4.93651 72.4179 4.34097C72.3847 4.1216 72.3021 3.91274 72.1763 3.73031C72.0506 3.54787 71.885 3.39668 71.6922 3.28825C71.1577 3.02204 70.5618 2.9046 69.9667 2.94814H68.5153L68.4992 9.16729Z" fill="#0B0B0B"/>
<path d="M83.9812 21.3627C82.7525 21.4215 81.5312 21.1415 80.4495 20.553C79.5684 20.0064 78.902 19.1712 78.5628 18.1884C78.1584 17.012 77.9672 15.7723 77.9983 14.5282V6.70565C77.9627 5.48238 78.1542 4.26315 78.5628 3.11021C78.8985 2.13801 79.5672 1.3172 80.4495 0.794228C81.5598 0.271161 82.771 0 83.9974 0C85.2237 0 86.4349 0.271161 87.5452 0.794228C88.4276 1.3172 89.0963 2.13801 89.432 3.11021C89.8603 4.25872 90.0629 5.47971 90.0286 6.70565V14.512C90.0572 15.7481 89.8548 16.9786 89.432 18.1398C89.1014 19.1307 88.4481 19.9808 87.5774 20.553C86.4769 21.1531 85.2316 21.4336 83.9812 21.3627ZM83.9812 18.5609C84.4827 18.6051 84.9826 18.4608 85.3842 18.156C85.708 17.8568 85.9236 17.458 85.997 17.0223C86.1068 16.4896 86.1609 15.9468 86.1583 15.4027V5.87967C86.1618 5.3356 86.1078 4.7927 85.997 4.2601C85.9194 3.83974 85.7036 3.45767 85.3842 3.17499C84.9699 2.90975 84.4887 2.76884 83.9974 2.76884C83.506 2.76884 83.0248 2.90975 82.6105 3.17499C82.2911 3.45767 82.0753 3.83974 81.9977 4.2601C81.8785 4.79135 81.8243 5.33524 81.8364 5.87967V15.4513C81.8325 15.9939 81.8757 16.5358 81.9654 17.0709C82.0444 17.5083 82.2656 17.907 82.5944 18.2046C82.9983 18.4884 83.4912 18.615 83.9812 18.5609Z" fill="#0B0B0B"/>
<path d="M95.9624 21.0876L91.7534 0.227539H95.1238L97.8976 14.9494L100.478 0.227539H103.945L99.736 21.0876H95.9624Z" fill="#0B0B0B"/>
<path d="M104.494 24.9587V22.5288H113.686V24.9587H104.494Z" fill="#0B0B0B"/>
<path d="M120.911 21.3626C119.646 21.4352 118.387 21.1249 117.299 20.4718C116.442 19.8894 115.805 19.0334 115.493 18.0424C115.128 16.8746 114.959 15.6542 114.993 14.4308V7.01319C114.963 5.75698 115.138 4.50434 115.509 3.30437C115.81 2.31209 116.45 1.45788 117.315 0.891216C118.415 0.270171 119.668 -0.02205 120.927 0.0490393C122.103 -0.0176392 123.274 0.240002 124.314 0.794042C125.125 1.25521 125.748 1.98948 126.072 2.86709C126.431 3.88015 126.606 4.94995 126.588 6.02525V7.77438H122.895V5.97666C122.9 5.43521 122.867 4.89407 122.798 4.35709C122.801 4.12233 122.753 3.88979 122.657 3.6756C122.561 3.46141 122.42 3.27067 122.244 3.11662C122.067 2.96256 121.86 2.84887 121.635 2.78341C121.411 2.71795 121.175 2.70229 120.944 2.73752C120.683 2.71578 120.42 2.74609 120.171 2.8267C119.922 2.90731 119.691 3.03662 119.492 3.2072C119.179 3.53456 118.981 3.95524 118.928 4.40568C118.832 4.9672 118.788 5.53656 118.799 6.10623V15.1434C118.781 15.7746 118.84 16.4056 118.976 17.0221C119.064 17.4508 119.291 17.8382 119.621 18.1234C120.011 18.3841 120.476 18.5092 120.944 18.4797C121.185 18.5054 121.429 18.4797 121.659 18.4044C121.89 18.329 122.102 18.2057 122.282 18.0424C122.573 17.7062 122.754 17.2875 122.798 16.844C122.864 16.3067 122.896 15.7657 122.895 15.2244V13.3781H126.572V14.9977C126.587 16.0979 126.418 17.1929 126.072 18.2368C125.762 19.155 125.155 19.9421 124.346 20.4718C123.312 21.097 122.118 21.4065 120.911 21.3626Z" fill="#0B0B0B"/>
<path d="M134.908 21.3627C133.68 21.4215 132.458 21.1415 131.377 20.553C130.502 20.0036 129.841 19.1687 129.506 18.1884C129.102 17.012 128.911 15.7723 128.942 14.5282V6.70565C128.906 5.48238 129.097 4.26315 129.506 3.11021C129.842 2.13801 130.511 1.3172 131.393 0.794227C132.503 0.271161 133.714 0 134.941 0C136.167 0 137.378 0.271161 138.489 0.794227C139.371 1.3172 140.04 2.13801 140.375 3.11021C140.798 4.25981 140.995 5.48077 140.956 6.70565V14.512C140.984 15.7481 140.782 16.9786 140.359 18.1398C140.011 19.1175 139.347 19.95 138.472 20.5044C137.386 21.1156 136.153 21.4127 134.908 21.3627ZM134.908 18.5609C135.148 18.5948 135.392 18.5792 135.625 18.5151C135.858 18.4509 136.076 18.3396 136.264 18.188C136.453 18.0363 136.609 17.8475 136.723 17.6331C136.836 17.4187 136.905 17.1833 136.924 16.9413C137.043 16.4099 137.097 15.8661 137.086 15.3218V5.87967C137.098 5.33523 137.043 4.79135 136.924 4.2601C136.847 3.83974 136.631 3.45767 136.311 3.17499C135.908 2.87426 135.409 2.73043 134.908 2.7701C134.419 2.74243 133.935 2.88546 133.538 3.17499C133.218 3.45767 133.003 3.83974 132.925 4.2601C132.814 4.79269 132.76 5.3356 132.764 5.87967V15.4513C132.76 15.9939 132.803 16.5358 132.893 17.0709C132.972 17.5083 133.193 17.907 133.522 18.2046C133.926 18.4884 134.418 18.615 134.908 18.5609Z" fill="#0B0B0B"/>
<path d="M143.777 21.0871V0.227072H148.712C150.075 0.15944 151.435 0.397333 152.695 0.923487C153.626 1.33961 154.357 2.10782 154.727 3.06132C155.167 4.22332 155.364 5.46358 155.308 6.70535V14.3011C155.347 15.5882 155.133 16.8705 154.679 18.0747C154.315 19.0455 153.601 19.8433 152.679 20.3097C151.469 20.8511 150.149 21.1007 148.825 21.0385L143.777 21.0871ZM147.599 18.431H148.76C149.422 18.4939 150.086 18.3344 150.647 17.9775C151.046 17.637 151.3 17.156 151.357 16.6333C151.448 15.9136 151.491 15.1886 151.486 14.4631V6.4948C151.503 5.81462 151.438 5.13489 151.292 4.47034C151.258 4.23875 151.173 4.01746 151.045 3.82173C150.917 3.62601 150.748 3.46051 150.55 3.33664C149.981 3.05316 149.346 2.93003 148.712 2.98034H147.599V18.431Z" fill="#0B0B0B"/>
<path d="M158.163 21.0876V0.227539H166.952V2.89983H161.985V8.89223H165.888V11.5645H161.985V18.4477H167V21.0714L158.163 21.0876Z" fill="#0B0B0B"/>
</svg>
