<?xml version="1.0" encoding="UTF-8"?>
<svg xmlns="http://www.w3.org/2000/svg" xmlns:xlink="http://www.w3.org/1999/xlink" width="28px" height="28px" viewBox="0 0 28 28" version="1.1">
<g id="surface1">
<path style=" stroke:none;fill-rule:nonzero;fill:rgb(0%,0%,0%);fill-opacity:1;" d="M 7.339844 6.046875 C 3.683594 8.6875 0.664062 10.867188 0.632812 10.890625 L 0.578125 10.933594 L 3.1875 18.765625 L 5.796875 26.601562 L 22.203125 26.601562 L 24.8125 18.769531 C 26.996094 12.222656 27.417969 10.933594 27.390625 10.910156 C 27.347656 10.871094 14.003906 1.238281 13.996094 1.238281 C 13.992188 1.238281 10.996094 3.402344 7.339844 6.046875 Z M 19.871094 7.203125 C 23.101562 9.535156 25.746094 11.457031 25.753906 11.472656 C 25.761719 11.488281 24.738281 14.582031 23.480469 18.351562 L 21.199219 25.199219 L 6.800781 25.199219 L 4.515625 18.347656 C 2.984375 13.75 2.238281 11.484375 2.253906 11.464844 C 2.269531 11.441406 13.960938 2.976562 13.992188 2.964844 C 13.996094 2.964844 16.640625 4.871094 19.871094 7.203125 Z M 19.871094 7.203125 "/>
</g>
</svg>
